# xmcd CD database file
#
# Track frame offsets:
#	150
#	33963
#	63383
#	101142
#	137095
#	163414
#	195983
#	227268
#
# Disc length: 3595 seconds
#
# Revision: 0
# Processed by: cddbd v1.5.1PL2 Copyright (c) Steve Scherf et al.
# Submitted via: CDex 1.60beta1
#
DISCID=640e0908
DTITLE=Derrick Gardner And The Jazz Prophets - Slim Goodie
DYEAR=2005
DGENRE=Jazz
TTITLE0=Slim Goodie
TTITLE1=The Big Beat
TTITLE2=Soul Talk
TTITLE3=So Young, So Beautiful
TTITLE4=Nica's Tempo
TTITLE5=Double Entendre
TTITLE6=Seeds Of Sin
TTITLE7=Earl's Twirl
EXTD=YEAR: 2005
EXTT0=
EXTT1=
EXTT2=
EXTT3=
EXTT4=
EXTT5=
EXTT6=
EXTT7=
PLAYORDER=
